<?xml version="1.0" encoding="utf-8"?>
<!-- Generator: Adobe Illustrator 23.0.1, SVG Export Plug-In . SVG Version: 6.00 Build 0)  -->
<svg version="1.1" id="Layer_3" width="16" class="headerSocial__icon" xmlns="http://www.w3.org/2000/svg" xmlns:xlink="http://www.w3.org/1999/xlink" x="0px" y="0px"
	 viewBox="0 0 18.3 17.9" style="enable-background:new 0 0 18.3 17.9;" xml:space="preserve">
<style type="text/css">
	.st0{fill:#FFFFFF;}
	.st1{fill:#0F4F41;}
	.st2{fill-rule:evenodd;clip-rule:evenodd;fill:#0F4F41;}
</style>
<g>
	<path class="st0" d="M10.1,2.1C9.8,1.8,9.5,1.7,9,1.7C8.6,1.7,8.2,1.8,7.9,2C7.6,2.3,7.5,2.6,7.5,3h0v2.6c0,0.4,0.1,0.8,0.4,1
		C8.2,6.9,8.5,7,9,7c0.5,0,0.8-0.1,1.1-0.4c0.3-0.2,0.4-0.6,0.4-1V3C10.5,2.6,10.4,2.3,10.1,2.1z M9.4,5.7c0,0.1,0,0.2-0.1,0.3
		C9.2,6.1,9.1,6.2,9,6.2c-0.1,0-0.2,0-0.3-0.1C8.6,6,8.6,5.9,8.6,5.7V2.9c0-0.1,0-0.2,0.1-0.3C8.8,2.6,8.9,2.6,9,2.6
		c0.1,0,0.2,0,0.3,0.1c0.1,0.1,0.1,0.2,0.1,0.3V5.7z"/>
	<path id="XMLID_12_" class="st0" d="M11.4,1.8h1v3.9c0,0.1,0,0.2,0.1,0.3c0,0.1,0.1,0.1,0.2,0.1c0.1,0,0.2,0,0.3-0.1
		c0.1-0.1,0.2-0.2,0.3-0.3V1.8h1v5.1h-1V6.3c-0.2,0.2-0.4,0.4-0.6,0.5C12.5,6.9,12.3,7,12.1,7c-0.2,0-0.4-0.1-0.5-0.2
		c-0.1-0.2-0.2-0.4-0.2-0.7V1.8z"/>
	<polygon id="XMLID_10_" class="st0" points="4.6,0 5.4,2.8 5.5,2.8 6.2,0 7.4,0 6,4 6,6.9 4.9,6.9 4.9,4.2 3.5,0 	"/>
	<g>
		<path class="st0" d="M14.3,12.2C14.3,12.1,14.2,12,14,12c-0.1,0-0.3,0-0.3,0.1c-0.1,0.1-0.1,0.2-0.1,0.4v0.5h0.8v-0.5
			C14.4,12.4,14.4,12.2,14.3,12.2z"/>
		<path class="st0" d="M10.8,12c-0.1,0-0.1,0-0.2,0c-0.1,0-0.1,0.1-0.2,0.1v2.9c0.1,0.1,0.1,0.1,0.2,0.2c0.1,0,0.1,0,0.2,0
			c0.1,0,0.2,0,0.2-0.1c0.1-0.1,0.1-0.2,0.1-0.3v-2.4c0-0.2,0-0.3-0.1-0.4C11.1,12.1,11,12,10.8,12z"/>
		<path class="st0" d="M15,8.5H3.3C1.5,8.5,0,10,0,11.9v2.7c0,1.8,1.5,3.3,3.3,3.3H15c1.8,0,3.3-1.5,3.3-3.3v-2.7
			C18.3,10,16.8,8.5,15,8.5z M5.8,10.6H4.7V16h-1v-5.4H2.6V9.7h3.2V10.6z M8.8,16H7.9v-0.5c-0.2,0.2-0.3,0.3-0.5,0.4
			C7.2,16,7,16,6.8,16c-0.2,0-0.4-0.1-0.5-0.2c-0.1-0.1-0.2-0.3-0.2-0.6v-3.9h0.9v3.6c0,0.1,0,0.2,0.1,0.2c0,0,0.1,0.1,0.2,0.1
			c0.1,0,0.2,0,0.3-0.1C7.7,15,7.8,15,7.9,14.9h0v-3.5h0.9V16z M12.2,15c0,0.3-0.1,0.6-0.2,0.8c-0.1,0.2-0.4,0.3-0.6,0.3
			c-0.2,0-0.3,0-0.5-0.1c-0.1-0.1-0.3-0.2-0.4-0.3V16H9.5V9.7h0.9v2c0.1-0.1,0.3-0.2,0.4-0.3c0.1-0.1,0.3-0.1,0.4-0.1
			c0.3,0,0.5,0.1,0.7,0.3c0.2,0.2,0.2,0.5,0.2,0.9V15z M15.4,13.8h-1.8v0.9c0,0.2,0,0.4,0.1,0.5c0.1,0.1,0.2,0.1,0.3,0.1
			c0.2,0,0.3,0,0.3-0.1c0.1-0.1,0.1-0.3,0.1-0.5v-0.2h1v0.2c0,0.5-0.1,0.8-0.3,1.1c-0.2,0.2-0.6,0.4-1,0.4c-0.4,0-0.7-0.1-1-0.4
			c-0.2-0.3-0.4-0.6-0.4-1v-2.1c0-0.4,0.1-0.7,0.4-1c0.3-0.3,0.6-0.4,1-0.4c0.4,0,0.7,0.1,1,0.4c0.2,0.2,0.3,0.6,0.3,1V13.8z"/>
	</g>
</g>
</svg>
