<?xml version="1.0" encoding="utf-8"?>
<!-- Generator: Adobe Illustrator 23.0.1, SVG Export Plug-In . SVG Version: 6.00 Build 0)  -->
<svg version="1.1" id="Layer_1" xmlns="http://www.w3.org/2000/svg" xmlns:xlink="http://www.w3.org/1999/xlink" x="0px" y="0px"
	 viewBox="0 0 128.6 23.7" style="enable-background:new 0 0 128.6 23.7;" xml:space="preserve">
<style type="text/css">
	.st0{fill-rule:evenodd;clip-rule:evenodd;fill:#0E4F41;}
	.st1{fill-rule:evenodd;clip-rule:evenodd;fill:#FFFFFF;}
	.st2{fill:#FFFFFF;}
</style>
<g>
	<g>
		<rect y="0" class="st0" width="128.6" height="23.7"/>
	</g>
	<path class="st1" d="M10.8,15.7h4.7c1.2,0,2-0.2,2.5-0.7s0.8-1.2,0.8-2.3c0-0.5-0.1-1-0.4-1.3s-0.6-0.5-1.1-0.7
		c0.4-0.2,0.7-0.4,1-0.7c0.2-0.3,0.4-0.8,0.4-1.4c0-1-0.3-1.7-0.8-2.1C17.3,6.2,16.4,6,15.1,6h-4c-1.2,0-2,0.2-2.6,0.7
		C8,7.1,7.7,7.8,7.7,8.7H10c0-0.3,0.1-0.5,0.2-0.7c0.2-0.2,0.5-0.2,1-0.2h3.9c0.3,0,0.6,0.1,0.8,0.2c0.2,0.2,0.3,0.4,0.3,0.8
		c0,0.4-0.1,0.7-0.3,0.9s-0.5,0.2-0.8,0.2h-4.6v1.7h4.3c0.7,0,1.1,0.1,1.3,0.3c0.2,0.2,0.3,0.5,0.3,0.8c0,0.4-0.1,0.7-0.4,0.8
		c-0.2,0.2-0.6,0.3-1.1,0.3H11c-0.3,0-0.6-0.1-0.8-0.3s-0.3-0.4-0.3-0.6H7.6c0,0.9,0.2,1.6,0.7,2.1S9.6,15.7,10.8,15.7z"/>
	<rect x="21.1" y="8.8" class="st1" width="2" height="6.9"/>
	<polygon class="st1" points="28.1,8.8 25.7,8.8 25.7,15.7 28.1,15.7 28.1,12.7 32.8,12.7 32.8,15.7 35.1,15.7 35.1,8.8 32.8,8.8 
		32.8,11.1 28.1,11.1 	"/>
	<path class="st1" d="M39.8,10.8v-0.2c0-0.1,0-0.2,0.2-0.3c0.1,0,0.4-0.1,0.7-0.1h2.5c0.4,0,0.8,0,1,0.2c0.2,0.1,0.3,0.3,0.3,0.7V12
		c-0.1-0.2-0.3-0.4-0.5-0.5s-0.5-0.2-0.8-0.2h-2.8c-1.1,0-1.8,0.2-2.2,0.5s-0.6,0.8-0.6,1.3v0.8c0,0.6,0.2,1,0.6,1.3
		c0.4,0.3,1,0.4,1.7,0.4H43c0.4,0,0.7-0.1,0.9-0.2c0.2-0.1,0.4-0.3,0.6-0.6v0.8h2.3v-4.5c0-0.7-0.2-1.3-0.7-1.7
		c-0.5-0.5-1.2-0.7-2.3-0.7h-3.5c-1.1,0-1.8,0.2-2.2,0.6c-0.4,0.4-0.6,0.8-0.6,1.4h2.3V10.8z M40.9,12.7h2.4c0.4,0,0.7,0.1,0.9,0.2
		c0.2,0.1,0.3,0.3,0.3,0.6s-0.1,0.5-0.3,0.6s-0.5,0.2-0.9,0.2h-2.4c-0.4,0-0.7-0.1-0.9-0.2c-0.2-0.1-0.2-0.3-0.2-0.6
		s0.1-0.5,0.3-0.6C40.2,12.7,40.5,12.7,40.9,12.7z"/>
	<path class="st1" d="M55.1,14.1h-0.8v3.7h2.1v-2.1h6.5v2.1H65v-3.7h-1V8.8h-8v2.7c0,0.5-0.1,1-0.2,1.5
		C55.6,13.4,55.4,13.8,55.1,14.1L55.1,14.1z M61.7,14.1h-4.1c0.3-0.3,0.4-0.7,0.5-1.1c0.1-0.4,0.2-0.8,0.2-1.3v-1.3h3.4
		C61.7,10.4,61.7,14.1,61.7,14.1z"/>
	<polygon class="st1" points="66.8,15.7 70.2,15.7 73.6,10.4 73.9,10.4 73.9,15.7 76,15.7 76,8.8 72.7,8.8 69.1,14.1 68.9,14.1 
		68.9,8.8 66.8,8.8 	"/>
	<path class="st1" d="M80.8,15.7h3.3c0.9,0,1.6-0.1,2.1-0.4c0.5-0.3,0.7-0.8,0.7-1.5c0-0.4-0.1-0.8-0.3-1c-0.2-0.3-0.5-0.5-0.8-0.6
		c0.3-0.1,0.6-0.3,0.7-0.6s0.2-0.5,0.2-0.9c0-0.7-0.2-1.2-0.6-1.5C85.7,8.9,85,8.7,84,8.7h-2.8c-1,0-1.8,0.2-2.2,0.5
		c-0.4,0.3-0.6,0.9-0.6,1.7h2.1c0-0.3,0.1-0.5,0.3-0.6c0.2-0.1,0.5-0.2,0.9-0.2h2.2c0.3,0,0.6,0.1,0.7,0.2c0.1,0.1,0.2,0.2,0.2,0.4
		s0,0.3-0.1,0.5c-0.1,0.1-0.3,0.2-0.7,0.2h-2.2v1.3H84c0.4,0,0.6,0.1,0.8,0.2c0.1,0.1,0.2,0.3,0.2,0.5c0,0.3-0.1,0.4-0.3,0.6
		c-0.2,0.1-0.4,0.2-0.7,0.2h-3c-0.3,0-0.5-0.1-0.6-0.2c-0.1-0.1-0.2-0.3-0.2-0.5h-2.1c0,0.7,0.2,1.3,0.6,1.7
		C79.1,15.5,79.8,15.7,80.8,15.7z"/>
	<path class="st1" d="M91.4,10.8v-0.2c0-0.1,0-0.2,0.2-0.3c0.1,0,0.4-0.1,0.7-0.1h2.5c0.4,0,0.8,0,1,0.2c0.2,0.1,0.3,0.3,0.3,0.7V12
		c-0.1-0.2-0.3-0.4-0.5-0.5s-0.5-0.2-0.8-0.2H92c-1.1,0-1.8,0.2-2.2,0.5c-0.4,0.3-0.6,0.8-0.6,1.3v0.8c0,0.6,0.2,1,0.6,1.3
		s1,0.4,1.7,0.4h3.1c0.4,0,0.7-0.1,0.9-0.2c0.2-0.1,0.4-0.3,0.6-0.6v0.8h2.3v-4.5c0-0.7-0.2-1.3-0.7-1.7c-0.5-0.5-1.2-0.7-2.3-0.7
		h-3.5c-1.1,0-1.8,0.2-2.2,0.6c-0.4,0.4-0.6,0.8-0.6,1.4h2.3V10.8z M92.5,12.7h2.4c0.4,0,0.7,0.1,0.9,0.2c0.2,0.1,0.3,0.3,0.2,0.6
		c0,0.3-0.1,0.5-0.2,0.6c-0.2,0.1-0.5,0.2-0.9,0.2h-2.4c-0.4,0-0.7-0.1-0.9-0.2c-0.2-0.1-0.2-0.3-0.2-0.6s0.1-0.5,0.2-0.6
		C91.8,12.7,92.1,12.7,92.5,12.7z"/>
	<path class="st1" d="M100.7,15.7h3.4l3.4-5.3h0.3v5.3h2.1V8.8h-3.3l-3.6,5.3h-0.3V8.8h-2.1L100.7,15.7L100.7,15.7z M104,6h-1.5
		c0,0.8,0.2,1.3,0.6,1.6c0.4,0.3,1.1,0.5,2.1,0.5s1.6-0.1,2.1-0.5c0.4-0.3,0.6-0.9,0.6-1.6h-1.5c0,0.4-0.1,0.7-0.4,0.8
		c-0.2,0.1-0.5,0.2-0.8,0.2s-0.5,0-0.8-0.2C104.2,6.7,104,6.4,104,6z"/>
	<polygon class="st1" points="114.6,8.8 112.3,8.8 112.3,15.7 114.6,15.7 114.6,12.7 119.3,12.7 119.3,15.7 121.7,15.7 121.7,8.8 
		119.3,8.8 119.3,11.1 114.6,11.1 	"/>
	<ellipse class="st2" cx="22" cy="7.1" rx="1.1" ry="1.1"/>
</g>
</svg>
