<?xml version="1.0" encoding="utf-8"?>
<!-- Generator: Adobe Illustrator 23.0.1, SVG Export Plug-In . SVG Version: 6.00 Build 0)  -->
<svg version="1.1" id="Layer_2" width="16" class="headerSocial__icon" xmlns="http://www.w3.org/2000/svg" xmlns:xlink="http://www.w3.org/1999/xlink" x="0px" y="0px"
	 viewBox="0 0 17.5 17.5" style="enable-background:new 0 0 17.5 17.5;" xml:space="preserve">
<style type="text/css">
	.st0{fill:#FFFFFF;}
	.st1{fill:#0F4F41;}
	.st2{fill-rule:evenodd;clip-rule:evenodd;fill:#0F4F41;}
</style>
<path class="st0" d="M13.4,5.1c-0.6,0-1.1-0.5-1.1-1.1S12.8,3,13.4,3C14,3,14.4,3.4,14.4,4S14,5.1,13.4,5.1z M16.1,1.5
	C15.2,0.5,13.9,0,12.4,0H5.1C2,0,0,2.1,0,5.1v7.3c0,1.5,0.5,2.8,1.5,3.8c0.9,0.9,2.2,1.4,3.7,1.4h7.2c1.5,0,2.8-0.5,3.7-1.4
	c0.9-0.9,1.5-2.2,1.5-3.8V5.1C17.5,3.6,17,2.4,16.1,1.5z M15.9,12.4c0,1.1-0.3,2-1,2.6c-0.6,0.6-1.5,0.9-2.6,0.9H5.1
	c-1.1,0-1.9-0.3-2.6-0.9c-0.7-0.7-1-1.6-1-2.6V5.1c0-1.1,0.3-2,0.9-2.6C3.1,1.9,4,1.6,5.1,1.6h7.3c1.1,0,2,0.3,2.6,1
	c0.6,0.7,0.9,1.5,0.9,2.6V12.4z M8.7,4.2c-2.4,0-4.5,2-4.5,4.5c0,2.4,2,4.5,4.5,4.5c2.5,0,4.5-2,4.5-4.5C13.3,6.2,11.1,4.2,8.7,4.2z
	 M8.7,11.6c-1.6,0-2.9-1.3-2.9-2.9s1.3-2.9,2.9-2.9c1.6,0,2.9,1.3,2.9,2.9S10.3,11.6,8.7,11.6z"/>
</svg>
