<?xml version="1.0" encoding="utf-8"?>
<!-- Generator: Adobe Illustrator 23.0.1, SVG Export Plug-In . SVG Version: 6.00 Build 0)  -->
<svg version="1.1" id="Layer_1" xmlns="http://www.w3.org/2000/svg" xmlns:xlink="http://www.w3.org/1999/xlink" x="0px" y="0px"
	 viewBox="0 0 228 47" style="enable-background:new 0 0 228 47;" xml:space="preserve">
<style type="text/css">
	.st0{fill:#FFFFFF;}
	.st1{fill:#0F4F41;}
	.st2{fill-rule:evenodd;clip-rule:evenodd;fill:#0F4F41;}
</style>
<g>
	<g>
		<path class="st1" d="M104.9,38.4c-0.2,0.1-0.4,0.3-0.5,0.6h0l-0.2-0.7h-0.7v5.8h0.9v-4.1c0-0.3,0.2-0.5,0.4-0.7
			c0.2-0.2,0.5-0.3,0.8-0.3c0.2,0,0.4,0,0.7,0.1l0.2-0.9c-0.3-0.1-0.5-0.1-0.8-0.1C105.3,38.2,105.1,38.3,104.9,38.4z"/>
		<path class="st1" d="M28.4,7.7L27,5.2l-6.5,0.1l1.4,2.5L8.7,30.7c6.5,0,0,0,6.5,0L28.4,7.7z"/>
		<path class="st1" d="M112,38.7c-0.2-0.2-0.4-0.3-0.6-0.4s-0.5-0.1-0.8-0.1c-0.4,0-0.8,0.1-1.1,0.2c-0.3,0.2-0.6,0.4-0.8,0.6h0
			l-0.2-0.7h-0.7v5.8h0.9v-4c0.1-0.3,0.3-0.6,0.6-0.8s0.6-0.3,1-0.3c0.5,0,0.8,0.2,1,0.5c0.2,0.3,0.3,0.8,0.3,1.4v3.3h0.9v-3.5
			c0-0.5,0-0.9-0.1-1.2C112.2,39.1,112.1,38.9,112,38.7z"/>
		<path class="st1" d="M198,14.7h-0.7c-0.6,1.7-1.2,2.9-1.8,3.8c-0.6,0.9-1.4,1.5-2.2,1.9c-0.9,0.4-1.9,0.6-3.2,0.6h-2
			c-1.1,0-1.9,0-2.2-0.1c-0.4-0.1-0.7-0.4-0.8-0.7c-0.1-0.3-0.2-1-0.2-2.1V4.5c0-1.1,0.1-1.7,0.2-2c0.2-0.4,0.4-0.6,0.7-0.8
			c0.4-0.2,1-0.3,1.7-0.3h1.1V0.9h-13v0.6h0.8c0.7,0,1.2,0.1,1.6,0.3s0.7,0.4,0.8,0.7c0.1,0.3,0.2,1,0.2,2v14c0,1.1-0.1,1.7-0.2,2
			c-0.2,0.4-0.4,0.6-0.7,0.8c-0.4,0.2-1,0.3-1.7,0.3h-0.8v0.6H197L198,14.7z"/>
		<path class="st1" d="M120.5,38.2c-0.4,0-0.7,0.1-1,0.2s-0.5,0.4-0.7,0.6h0l-0.2-0.7H118v8.1h0.9v-2.4c0.2,0.1,0.4,0.1,0.5,0.2
			c0.2,0,0.4,0.1,0.7,0.1c0.4,0,0.8-0.1,1.1-0.2c0.3-0.1,0.6-0.4,0.8-0.6c0.2-0.3,0.4-0.6,0.5-1s0.2-0.8,0.2-1.3
			c0-1-0.2-1.8-0.6-2.2S121.3,38.2,120.5,38.2z M121.4,42.9c-0.3,0.4-0.7,0.6-1.3,0.6c-0.3,0-0.5,0-0.7-0.1
			c-0.2-0.1-0.3-0.1-0.5-0.3v-2.9c0.1-0.4,0.3-0.7,0.5-0.9c0.2-0.2,0.5-0.3,0.9-0.3c0.3,0,0.5,0.1,0.7,0.2c0.2,0.1,0.3,0.2,0.5,0.4
			s0.2,0.4,0.3,0.7c0.1,0.3,0.1,0.5,0.1,0.9C121.9,41.9,121.7,42.5,121.4,42.9z"/>
		<path class="st1" d="M121.1,15.4h-0.7c-0.6,1.9-1.6,3.3-2.9,4.2c-1.4,0.9-3.2,1.4-5.5,1.4h-1.5c-0.7,0-1.2-0.1-1.5-0.3
			c-0.3-0.2-0.5-0.4-0.6-0.6c-0.1-0.3-0.2-1-0.2-2.2v-6c1.2,0,2,0.1,2.7,0.4c0.6,0.3,1.1,0.8,1.6,1.6c0.5,0.8,0.8,1.8,0.9,3h0.7V5.7
			h-0.7c-0.2,1.7-0.6,2.9-1.3,3.8s-1.8,1.3-3.4,1.3h-0.5V2.1h2.5c1.8,0,3.1,0.1,3.8,0.3c1.1,0.3,2,0.8,2.7,1.5
			c0.6,0.7,1.1,1.8,1.5,3.3h0.7V0.9H99v0.6h0.8c0.8,0,1.4,0.1,1.9,0.4c0.3,0.2,0.5,0.5,0.7,0.8c0.1,0.2,0.1,0.8,0.1,1.8v14
			c0,1.1-0.1,1.7-0.2,2c-0.2,0.4-0.4,0.6-0.7,0.8c-0.4,0.2-1,0.3-1.7,0.3H99v0.6h21L121.1,15.4z"/>
		<path class="st1" d="M97.5,13.2H85.7v0.6h0.6c0.6,0,1.1,0.1,1.5,0.3s0.7,0.4,0.8,0.7c0.1,0.2,0.2,0.8,0.2,1.6v4.4
			c-0.6,0.2-1.3,0.4-1.9,0.5c-0.6,0.1-1.2,0.2-1.8,0.2c-1.7,0-3.1-0.4-4.4-1.1c-1.2-0.7-2.1-1.9-2.7-3.4c-0.5-1.5-0.8-3.3-0.8-5.4
			c0-1.7,0.3-3.3,0.8-4.9s1.4-2.8,2.6-3.7c1.2-0.9,2.7-1.3,4.5-1.3c1.9,0,3.6,0.5,5.3,1.6s2.8,2.6,3.6,4.7h0.7V0.4H94
			c-0.2,0.6-0.5,1-0.8,1.2s-0.6,0.3-0.9,0.3c-0.2,0-0.9-0.2-2.1-0.6c-1.2-0.4-2-0.6-2.6-0.7c-1-0.2-2.1-0.3-3.3-0.3
			c-3.9,0-7.1,1.1-9.7,3.3c-2.6,2.2-3.9,4.9-3.9,8.1c0,1.8,0.4,3.4,1.3,4.9c0.7,1.1,1.6,2.1,2.7,3c1.2,0.9,2.5,1.6,4,2.2
			c1.5,0.5,3.4,0.8,5.7,0.8c1.8,0,3.5-0.2,5.2-0.5c1.7-0.3,3.3-0.8,4.8-1.4v-4.4c0-0.8,0.1-1.3,0.2-1.5c0.2-0.4,0.5-0.6,0.8-0.8
			c0.4-0.2,1-0.3,1.9-0.3V13.2z"/>
		<path class="st1" d="M128.6,42.7c0-0.4,0-0.8,0-1.3c0-0.4,0-0.9,0-1.4c0-0.2,0-0.4-0.1-0.6c0-0.2-0.1-0.4-0.3-0.6
			s-0.3-0.3-0.6-0.4s-0.6-0.2-1-0.2c-0.4,0-0.8,0-1.2,0.1c-0.4,0.1-0.7,0.2-1,0.4l0.3,0.7c0.1-0.1,0.2-0.1,0.4-0.2s0.3-0.1,0.5-0.1
			c0.2,0,0.3-0.1,0.5-0.1s0.3,0,0.4,0c0.5,0,0.8,0.1,0.9,0.3c0.2,0.2,0.3,0.5,0.3,0.9c0,0.2,0,0.4,0,0.6c-0.1,0-0.2,0-0.3,0
			s-0.2,0-0.3,0c-0.4,0-0.8,0-1.2,0.1c-0.4,0.1-0.7,0.2-0.9,0.3c-0.3,0.1-0.4,0.3-0.6,0.5s-0.2,0.5-0.2,0.9c0,0.3,0,0.5,0.1,0.7
			c0.1,0.2,0.2,0.4,0.4,0.5c0.2,0.1,0.3,0.3,0.6,0.3c0.2,0.1,0.4,0.1,0.7,0.1s0.5,0,0.7-0.1c0.2-0.1,0.4-0.1,0.5-0.2
			c0.1-0.1,0.3-0.2,0.4-0.3c0.1-0.1,0.2-0.2,0.3-0.3h0.1l0.2,0.8h0.7c-0.1-0.2-0.1-0.5-0.1-0.7C128.6,43.2,128.6,42.9,128.6,42.7z
			 M127.7,42.5c0,0.1-0.1,0.2-0.2,0.3c-0.1,0.1-0.2,0.2-0.3,0.3c-0.1,0.1-0.3,0.2-0.4,0.2c-0.2,0.1-0.4,0.1-0.6,0.1
			c-0.3,0-0.6-0.1-0.7-0.3c-0.2-0.2-0.3-0.4-0.3-0.7c0-0.2,0.1-0.4,0.2-0.5s0.2-0.2,0.4-0.3c0.2-0.1,0.4-0.1,0.6-0.2
			c0.2,0,0.5,0,0.7,0c0.1,0,0.2,0,0.3,0s0.2,0,0.3,0V42.5z"/>
		<path class="st1" d="M32.2,1.5l-0.3-0.6h-0.7h-12h-0.7l-0.3,0.6L0.2,32.5l-0.3,0.6l0.3,0.6l6,10.3l0.3,0.6h0.7h35.9h0.7l0.3-0.6
			l6-10.3l0.3-0.6l-0.3-0.6L32.2,1.5z M42.4,42.3H7.9l-5.3-9.2L19.9,3.3h10.6l17.2,29.9L42.4,42.3z"/>
		<path class="st1" d="M95,42.2V36h-0.9v2.4c-0.2-0.1-0.4-0.1-0.5-0.2c-0.2,0-0.4,0-0.7,0c-0.8,0-1.5,0.3-1.9,0.8
			c-0.5,0.5-0.7,1.3-0.7,2.3c0,1,0.2,1.8,0.6,2.3s1,0.7,1.7,0.7c0.4,0,0.7-0.1,1-0.3s0.5-0.4,0.7-0.7h0l0.2,0.8h0.6
			c-0.1-0.3-0.1-0.6-0.1-0.9C95,42.9,95,42.6,95,42.2z M94.1,42.2c-0.1,0.4-0.2,0.7-0.5,0.9c-0.2,0.2-0.5,0.3-0.9,0.3
			c-0.3,0-0.5-0.1-0.7-0.2c-0.2-0.1-0.3-0.3-0.5-0.5c-0.1-0.2-0.2-0.4-0.3-0.7c-0.1-0.3-0.1-0.6-0.1-0.9c0-0.8,0.2-1.3,0.5-1.7
			c0.3-0.4,0.7-0.5,1.3-0.5c0.3,0,0.5,0,0.7,0.1c0.2,0,0.3,0.1,0.5,0.2V42.2z"/>
		<path class="st1" d="M88.1,39c-0.2-0.3-0.5-0.5-0.8-0.6c-0.3-0.1-0.7-0.2-1.1-0.2c-0.8,0-1.5,0.3-1.9,0.8
			c-0.4,0.5-0.7,1.3-0.7,2.3c0,0.5,0.1,0.9,0.2,1.2c0.1,0.4,0.3,0.7,0.5,1c0.2,0.3,0.5,0.5,0.8,0.6c0.3,0.1,0.7,0.2,1.1,0.2
			c0.8,0,1.5-0.3,1.9-0.8c0.4-0.5,0.7-1.3,0.7-2.3c0-0.5-0.1-0.9-0.2-1.2C88.5,39.6,88.3,39.3,88.1,39z M86.2,43.5
			c-0.3,0-0.5-0.1-0.7-0.2c-0.2-0.1-0.4-0.3-0.5-0.5c-0.1-0.2-0.2-0.4-0.3-0.7c-0.1-0.3-0.1-0.6-0.1-0.8c0-1.5,0.5-2.2,1.6-2.2
			c0.3,0,0.5,0.1,0.7,0.2c0.2,0.1,0.4,0.3,0.5,0.5c0.1,0.2,0.2,0.4,0.3,0.7c0.1,0.3,0.1,0.6,0.1,0.9C87.7,42.7,87.2,43.5,86.2,43.5z
			"/>
		<path class="st1" d="M100.9,38.6c-0.2-0.2-0.4-0.3-0.7-0.3s-0.5-0.1-0.8-0.1c-0.8,0-1.5,0.3-1.9,0.8c-0.4,0.5-0.7,1.3-0.7,2.3
			c0,0.5,0.1,0.9,0.2,1.3c0.1,0.4,0.3,0.7,0.5,1c0.2,0.3,0.5,0.5,0.8,0.6c0.3,0.1,0.7,0.2,1.2,0.2c0.4,0,0.8-0.1,1.1-0.2
			c0.4-0.1,0.6-0.3,0.9-0.4l-0.4-0.7c-0.1,0.1-0.3,0.2-0.6,0.3c-0.3,0.1-0.5,0.1-0.8,0.1c-0.3,0-0.6,0-0.9-0.1
			c-0.2-0.1-0.4-0.2-0.6-0.4s-0.3-0.4-0.3-0.7c-0.1-0.3-0.1-0.6-0.1-0.9h3.7c0-0.3,0.1-0.6,0.1-0.8c0-0.5-0.1-0.9-0.2-1.2
			S101.1,38.8,100.9,38.6z M97.8,40.6c0.1-0.6,0.2-1,0.5-1.2S99,39,99.4,39c0.4,0,0.7,0.1,1,0.4c0.2,0.2,0.3,0.6,0.3,1.2H97.8z"/>
		<path class="st1" d="M7.5,32.7l-1.4,2.5l3.3,5.6l1.4-2.4l26.5,0c-3.3-5.6,0,0-3.3-5.6L7.5,32.7z"/>
		<path class="st1" d="M81.5,38.7c-0.1-0.2-0.3-0.3-0.6-0.4c-0.2-0.1-0.5-0.1-0.8-0.1c-0.4,0-0.8,0.1-1.1,0.3s-0.6,0.4-0.7,0.7
			c-0.1-0.4-0.3-0.6-0.6-0.7c-0.2-0.1-0.5-0.2-0.9-0.2c-0.4,0-0.8,0.1-1.1,0.2c-0.3,0.2-0.5,0.4-0.7,0.6h0l-0.2-0.7h-0.7v5.8H75v-4
			c0.1-0.3,0.3-0.6,0.5-0.8c0.2-0.2,0.5-0.3,0.9-0.3c0.2,0,0.4,0,0.6,0.1s0.3,0.2,0.3,0.3c0.1,0.2,0.1,0.3,0.2,0.6
			c0,0.2,0,0.5,0,0.8v3.3h0.9v-3.9c0.1-0.4,0.2-0.7,0.5-0.9c0.2-0.2,0.5-0.3,0.9-0.3c0.2,0,0.4,0,0.6,0.1s0.3,0.2,0.3,0.3
			c0.1,0.1,0.1,0.3,0.2,0.5c0,0.2,0,0.4,0,0.7v3.5h0.9v-3.5c0-0.5,0-0.9-0.1-1.2C81.7,39.1,81.6,38.9,81.5,38.7z"/>
		<path class="st1" d="M26.3,15.4l13.3,23l2.8,0l3.2-5.6l-2.8,0L29.6,9.7C26.3,15.4,29.6,9.7,26.3,15.4z"/>
		<rect x="155.3" y="38.3" class="st1" width="0.9" height="5.8"/>
		<path class="st1" d="M133.9,43.4c-0.2,0.1-0.5,0.1-0.8,0.1c-0.3,0-0.6-0.1-0.8-0.2c-0.2-0.1-0.4-0.3-0.5-0.5
			c-0.1-0.2-0.2-0.4-0.3-0.7c-0.1-0.3-0.1-0.5-0.1-0.8c0-1.5,0.6-2.2,1.7-2.2c0.2,0,0.5,0,0.7,0.1c0.2,0.1,0.4,0.1,0.6,0.2l0.3-0.8
			c-0.2-0.1-0.4-0.2-0.7-0.3s-0.6-0.1-1-0.1c-0.8,0-1.4,0.3-1.9,0.8c-0.4,0.5-0.7,1.3-0.7,2.3c0,0.5,0,0.9,0.1,1.2
			c0.1,0.4,0.2,0.7,0.4,1c0.2,0.3,0.5,0.5,0.8,0.6c0.3,0.1,0.7,0.2,1.1,0.2c0.4,0,0.7,0,1-0.1s0.6-0.2,0.8-0.4l-0.3-0.7
			C134.3,43.2,134.1,43.3,133.9,43.4z"/>
		<path class="st1" d="M184.8,39c-0.2-0.3-0.5-0.5-0.8-0.6c-0.3-0.1-0.7-0.2-1.1-0.2c-0.8,0-1.5,0.3-1.9,0.8
			c-0.4,0.5-0.7,1.3-0.7,2.3c0,0.5,0.1,0.9,0.2,1.2c0.1,0.4,0.3,0.7,0.5,1c0.2,0.3,0.5,0.5,0.8,0.6c0.3,0.1,0.7,0.2,1.1,0.2
			c0.8,0,1.5-0.3,1.9-0.8c0.4-0.5,0.7-1.3,0.7-2.3c0-0.5-0.1-0.9-0.2-1.2C185.2,39.6,185,39.3,184.8,39z M182.9,43.5
			c-0.3,0-0.5-0.1-0.7-0.2c-0.2-0.1-0.4-0.3-0.5-0.5c-0.1-0.2-0.2-0.4-0.3-0.7c-0.1-0.3-0.1-0.6-0.1-0.8c0-1.5,0.5-2.2,1.6-2.2
			c0.3,0,0.5,0.1,0.7,0.2c0.2,0.1,0.4,0.3,0.5,0.5c0.1,0.2,0.2,0.4,0.3,0.7c0.1,0.3,0.1,0.6,0.1,0.9C184.5,42.7,184,43.5,182.9,43.5
			z"/>
		<rect x="202.2" y="38.3" class="st1" width="0.9" height="5.8"/>
		<path class="st1" d="M195.5,42.5v-4.2h-0.9v3.9c-0.1,0.2-0.1,0.3-0.2,0.5c-0.1,0.2-0.2,0.3-0.3,0.4s-0.3,0.2-0.4,0.3
			s-0.4,0.1-0.6,0.1c-0.2,0-0.4,0-0.6-0.1c-0.1-0.1-0.3-0.2-0.4-0.3c-0.1-0.2-0.1-0.3-0.2-0.6c0-0.2-0.1-0.5-0.1-0.8v-3.3h-0.9v3.5
			c0,0.5,0,0.9,0.1,1.2c0.1,0.3,0.2,0.6,0.4,0.7s0.4,0.3,0.6,0.4c0.2,0.1,0.5,0.1,0.8,0.1c0.5,0,0.9-0.1,1.2-0.3
			c0.3-0.2,0.5-0.5,0.7-0.8h0.1l0.2,0.9h0.6c0-0.2-0.1-0.5-0.1-0.8C195.5,43.1,195.5,42.8,195.5,42.5z"/>
		<path class="st1" d="M189.2,43.5c-0.1,0-0.2,0-0.3,0c-0.2,0-0.3-0.1-0.4-0.2c-0.1-0.1-0.1-0.3-0.1-0.6V36h-0.9v7
			c0,0.5,0.1,0.8,0.3,1c0.2,0.2,0.5,0.3,0.9,0.3c0.2,0,0.4,0,0.6-0.1c0.2,0,0.4-0.1,0.5-0.2l-0.1-0.7
			C189.4,43.4,189.3,43.4,189.2,43.5z"/>
		<path class="st1" d="M199.9,43.4c-0.1,0-0.3,0.1-0.5,0.1c-0.2,0-0.4-0.1-0.5-0.2s-0.2-0.5-0.2-0.9v-3.2h1.6v-0.8h-1.6v-1.4
			l-0.9,0.3v1.2h-0.9v0.8h0.9v3.4c0,0.6,0.1,1.1,0.3,1.3c0.2,0.3,0.5,0.4,1,0.4c0.3,0,0.6,0,0.8-0.1s0.5-0.1,0.7-0.2l-0.2-0.7
			C200.2,43.3,200.1,43.4,199.9,43.4z"/>
		<path class="st1" d="M223.2,3.5c-2.4-2.1-5.6-3.1-9.4-3c-3.6-0.1-6.6,0.9-9.1,3c-2.5,2.1-3.7,4.7-3.7,7.9c0,2.8,0.9,5.2,2.8,7.3
			c2.4,2.6,5.8,3.9,10.1,3.9c4.4,0,7.7-1.4,10.1-4.1c1.8-2.1,2.7-4.4,2.7-7.1C226.9,8.3,225.7,5.7,223.2,3.5z M219.5,17.5
			c-0.6,1.5-1.4,2.5-2.5,3.2c-0.8,0.5-1.9,0.8-3.1,0.8c-1.8,0-3.3-0.6-4.3-1.8c-1.5-1.7-2.2-4.4-2.2-8.1c0-3.1,0.5-5.4,1.4-7
			c1.2-2,2.8-3,5.1-3c1.2,0,2.3,0.3,3.2,0.9c0.9,0.6,1.7,1.6,2.3,3c0.6,1.4,0.9,3.5,0.9,6.3C220.4,14.1,220.1,16,219.5,17.5z"/>
		<path class="st1" d="M221.6,41.2c-0.2-0.1-0.4-0.3-0.7-0.3c-0.2-0.1-0.5-0.2-0.7-0.3c-0.2-0.1-0.4-0.2-0.5-0.3s-0.2-0.3-0.2-0.5
			c0-0.3,0.1-0.5,0.2-0.6s0.4-0.2,0.8-0.2c0.3,0,0.6,0,0.8,0.1s0.5,0.1,0.6,0.2l0.2-0.8c-0.2-0.1-0.5-0.2-0.7-0.3s-0.6-0.1-1.1-0.1
			c-0.6,0-1,0.1-1.3,0.4c-0.3,0.3-0.5,0.7-0.5,1.2c0,0.3,0.1,0.6,0.2,0.8c0.1,0.2,0.3,0.4,0.5,0.5c0.2,0.1,0.4,0.2,0.7,0.3
			c0.2,0.1,0.5,0.2,0.7,0.3c0.2,0.1,0.4,0.2,0.5,0.3s0.2,0.3,0.2,0.5c0,0.3-0.1,0.6-0.3,0.7s-0.5,0.2-0.8,0.2c-0.3,0-0.6,0-0.9-0.1
			c-0.3-0.1-0.5-0.2-0.7-0.3l-0.3,0.8c0.2,0.1,0.5,0.2,0.8,0.3c0.3,0.1,0.7,0.1,1.1,0.1c0.3,0,0.6,0,0.9-0.1s0.5-0.2,0.6-0.4
			c0.2-0.2,0.3-0.3,0.4-0.6c0.1-0.2,0.1-0.4,0.1-0.7c0-0.3-0.1-0.6-0.2-0.8C222,41.5,221.8,41.3,221.6,41.2z"/>
		<path class="st1" d="M209.6,39c-0.2-0.3-0.5-0.5-0.8-0.6c-0.3-0.1-0.7-0.2-1.1-0.2c-0.8,0-1.5,0.3-1.9,0.8
			c-0.4,0.5-0.7,1.3-0.7,2.3c0,0.5,0.1,0.9,0.2,1.2c0.1,0.4,0.3,0.7,0.5,1c0.2,0.3,0.5,0.5,0.8,0.6c0.3,0.1,0.7,0.2,1.1,0.2
			c0.8,0,1.5-0.3,1.9-0.8c0.4-0.5,0.7-1.3,0.7-2.3c0-0.5-0.1-0.9-0.2-1.2C210,39.6,209.8,39.3,209.6,39z M207.7,43.5
			c-0.3,0-0.5-0.1-0.7-0.2c-0.2-0.1-0.4-0.3-0.5-0.5c-0.1-0.2-0.2-0.4-0.3-0.7c-0.1-0.3-0.1-0.6-0.1-0.8c0-1.5,0.5-2.2,1.6-2.2
			c0.3,0,0.5,0.1,0.7,0.2c0.2,0.1,0.4,0.3,0.5,0.5c0.1,0.2,0.2,0.4,0.3,0.7c0.1,0.3,0.1,0.6,0.1,0.9
			C209.3,42.7,208.8,43.5,207.7,43.5z"/>
		<path class="st1" d="M216.3,38.7c-0.2-0.2-0.4-0.3-0.6-0.4s-0.5-0.1-0.8-0.1c-0.4,0-0.8,0.1-1.1,0.2c-0.3,0.2-0.6,0.4-0.8,0.6h0
			l-0.2-0.7h-0.7v5.8h0.9v-4c0.1-0.3,0.3-0.6,0.6-0.8s0.6-0.3,1-0.3c0.5,0,0.8,0.2,1,0.5c0.2,0.3,0.3,0.8,0.3,1.4v3.3h0.9v-3.5
			c0-0.5,0-0.9-0.1-1.2C216.6,39.1,216.4,38.9,216.3,38.7z"/>
		<path class="st1" d="M202.6,35.9c-0.2,0-0.3,0.1-0.5,0.2c-0.1,0.1-0.2,0.3-0.2,0.5s0.1,0.3,0.2,0.4c0.1,0.1,0.3,0.2,0.5,0.2
			c0.2,0,0.3-0.1,0.5-0.2c0.1-0.1,0.2-0.3,0.2-0.4s-0.1-0.3-0.2-0.5C203,36,202.8,35.9,202.6,35.9z"/>
		<path class="st1" d="M178.2,41.2c-0.2-0.1-0.4-0.3-0.7-0.3c-0.2-0.1-0.5-0.2-0.7-0.3c-0.2-0.1-0.4-0.2-0.5-0.3s-0.2-0.3-0.2-0.5
			c0-0.3,0.1-0.5,0.2-0.6s0.4-0.2,0.8-0.2c0.3,0,0.6,0,0.8,0.1s0.5,0.1,0.6,0.2l0.2-0.8c-0.2-0.1-0.5-0.2-0.7-0.3s-0.6-0.1-1.1-0.1
			c-0.6,0-1,0.1-1.3,0.4c-0.3,0.3-0.5,0.7-0.5,1.2c0,0.3,0.1,0.6,0.2,0.8c0.1,0.2,0.3,0.4,0.5,0.5c0.2,0.1,0.4,0.2,0.7,0.3
			c0.2,0.1,0.5,0.2,0.7,0.3c0.2,0.1,0.4,0.2,0.5,0.3s0.2,0.3,0.2,0.5c0,0.3-0.1,0.6-0.3,0.7s-0.5,0.2-0.8,0.2c-0.3,0-0.6,0-0.9-0.1
			c-0.3-0.1-0.5-0.2-0.7-0.3l-0.3,0.8c0.2,0.1,0.5,0.2,0.8,0.3c0.3,0.1,0.7,0.1,1.1,0.1c0.3,0,0.6,0,0.9-0.1s0.5-0.2,0.6-0.4
			c0.2-0.2,0.3-0.3,0.4-0.6c0.1-0.2,0.1-0.4,0.1-0.7c0-0.3-0.1-0.6-0.2-0.8C178.6,41.5,178.4,41.3,178.2,41.2z"/>
		<path class="st1" d="M146.3,42.7c0-0.4,0-0.8,0-1.3c0-0.4,0-0.9,0-1.4c0-0.2,0-0.4-0.1-0.6c0-0.2-0.1-0.4-0.3-0.6
			s-0.3-0.3-0.6-0.4s-0.6-0.2-1-0.2c-0.4,0-0.8,0-1.2,0.1c-0.4,0.1-0.7,0.2-1,0.4l0.3,0.7c0.1-0.1,0.2-0.1,0.4-0.2s0.3-0.1,0.5-0.1
			c0.2,0,0.3-0.1,0.5-0.1s0.3,0,0.4,0c0.5,0,0.8,0.1,0.9,0.3c0.2,0.2,0.3,0.5,0.3,0.9c0,0.2,0,0.4,0,0.6c-0.1,0-0.2,0-0.3,0
			s-0.2,0-0.3,0c-0.4,0-0.8,0-1.2,0.1c-0.4,0.1-0.7,0.2-0.9,0.3c-0.3,0.1-0.4,0.3-0.6,0.5s-0.2,0.5-0.2,0.9c0,0.3,0,0.5,0.1,0.7
			c0.1,0.2,0.2,0.4,0.4,0.5c0.2,0.1,0.3,0.3,0.6,0.3c0.2,0.1,0.4,0.1,0.7,0.1s0.5,0,0.7-0.1c0.2-0.1,0.4-0.1,0.5-0.2
			c0.1-0.1,0.3-0.2,0.4-0.3c0.1-0.1,0.2-0.2,0.3-0.3h0.1l0.2,0.8h0.7c-0.1-0.2-0.1-0.5-0.1-0.7C146.3,43.2,146.3,42.9,146.3,42.7z
			 M145.4,42.5c0,0.1-0.1,0.2-0.2,0.3c-0.1,0.1-0.2,0.2-0.3,0.3c-0.1,0.1-0.3,0.2-0.4,0.2c-0.2,0.1-0.4,0.1-0.6,0.1
			c-0.3,0-0.6-0.1-0.7-0.3c-0.2-0.2-0.3-0.4-0.3-0.7c0-0.2,0.1-0.4,0.2-0.5s0.2-0.2,0.4-0.3c0.2-0.1,0.4-0.1,0.6-0.2
			c0.2,0,0.5,0,0.7,0c0.1,0,0.2,0,0.3,0s0.2,0,0.3,0V42.5z"/>
		<path class="st1" d="M133.1,20.6c-0.2-0.3-0.2-1-0.2-2.2v-6h1.6l7.8,9.7h7.7v-0.6c-0.6,0-1.2-0.2-1.7-0.5
			c-0.3-0.2-0.9-0.8-1.6-1.7l-5.8-7.2c1.5-0.3,2.6-0.8,3.5-1.5c1.3-1,1.9-2.3,1.9-3.9c0-1.3-0.4-2.4-1.3-3.4c-0.9-1-2-1.6-3.3-2
			c-1.4-0.4-3.5-0.5-6.5-0.5h-11.3v0.6c1.1,0,1.9,0.1,2.3,0.3c0.4,0.2,0.7,0.4,0.9,0.7c0.2,0.3,0.2,1,0.2,2.2v13.8
			c0,1.2-0.1,1.9-0.2,2.2c-0.2,0.3-0.4,0.5-0.8,0.7c-0.4,0.2-1.2,0.3-2.3,0.3v0.6h12.4v-0.6c-1.1,0-1.9-0.1-2.3-0.3
			C133.5,21.1,133.2,20.9,133.1,20.6z M132.8,2h1.9c1.9,0,3.3,0.4,4.2,1.2s1.3,2,1.3,3.6c0,1.1-0.2,2-0.7,2.7
			c-0.5,0.7-1.1,1.2-1.9,1.4c-0.8,0.3-2.1,0.4-3.7,0.4h-1V2z"/>
		<path class="st1" d="M151,38.2c-0.9,0-1.6,0.3-2.1,0.8s-0.7,1.3-0.7,2.3c0,1,0.2,1.8,0.6,2.3s0.9,0.7,1.7,0.7
			c0.4,0,0.7-0.1,0.9-0.2s0.4-0.3,0.6-0.5h0v0.6c0,0.3,0,0.5-0.1,0.8c0,0.2-0.1,0.4-0.3,0.5c-0.1,0.1-0.3,0.2-0.5,0.3
			c-0.2,0.1-0.5,0.1-0.8,0.1c-0.4,0-0.6,0-0.9-0.1c-0.2-0.1-0.4-0.1-0.6-0.2l-0.2,0.8c0.2,0.1,0.4,0.2,0.7,0.2s0.7,0.1,1.1,0.1
			c0.8,0,1.4-0.2,1.8-0.5s0.6-0.9,0.6-1.7v-5.8c-0.2-0.1-0.5-0.2-0.8-0.2C151.8,38.3,151.4,38.2,151,38.2z M152,42.3
			c-0.1,0.4-0.3,0.7-0.5,0.9c-0.2,0.2-0.5,0.3-0.9,0.3c-0.3,0-0.5-0.1-0.7-0.2c-0.2-0.1-0.3-0.3-0.5-0.5c-0.1-0.2-0.2-0.4-0.3-0.7
			c-0.1-0.3-0.1-0.6-0.1-0.9c0-0.8,0.2-1.3,0.5-1.7s0.7-0.5,1.2-0.5c0.5,0,0.9,0.1,1.2,0.2V42.3z"/>
		<polygon class="st1" points="138.4,41.1 138.9,40.7 140.7,38.3 139.6,38.3 137.8,40.8 137.3,41 137.3,36 136.4,36 136.4,44.2 
			137.3,44.2 137.3,41.5 137.9,41.5 139.8,44.2 141,44.2 139,41.5 		"/>
		<path class="st1" d="M155.7,35.9c-0.2,0-0.3,0.1-0.5,0.2c-0.1,0.1-0.2,0.3-0.2,0.5s0.1,0.3,0.2,0.4c0.1,0.1,0.3,0.2,0.5,0.2
			c0.2,0,0.3-0.1,0.5-0.2c0.1-0.1,0.2-0.3,0.2-0.4s-0.1-0.3-0.2-0.5C156.1,36,155.9,35.9,155.7,35.9z"/>
		<path class="st1" d="M167.8,38.2c-0.9,0-1.6,0.3-2.1,0.8s-0.7,1.3-0.7,2.3c0,1,0.2,1.8,0.6,2.3s0.9,0.7,1.7,0.7
			c0.4,0,0.7-0.1,0.9-0.2s0.4-0.3,0.6-0.5h0v0.6c0,0.3,0,0.5-0.1,0.8c0,0.2-0.1,0.4-0.3,0.5c-0.1,0.1-0.3,0.2-0.5,0.3
			c-0.2,0.1-0.5,0.1-0.8,0.1c-0.4,0-0.6,0-0.9-0.1c-0.2-0.1-0.4-0.1-0.6-0.2l-0.2,0.8c0.2,0.1,0.4,0.2,0.7,0.2s0.7,0.1,1.1,0.1
			c0.8,0,1.4-0.2,1.8-0.5s0.6-0.9,0.6-1.7v-5.8c-0.2-0.1-0.5-0.2-0.8-0.2C168.6,38.3,168.2,38.2,167.8,38.2z M168.9,42.3
			c-0.1,0.4-0.3,0.7-0.5,0.9c-0.2,0.2-0.5,0.3-0.9,0.3c-0.3,0-0.5-0.1-0.7-0.2c-0.2-0.1-0.3-0.3-0.5-0.5c-0.1-0.2-0.2-0.4-0.3-0.7
			c-0.1-0.3-0.1-0.6-0.1-0.9c0-0.8,0.2-1.3,0.5-1.7s0.7-0.5,1.2-0.5c0.5,0,0.9,0.1,1.2,0.2V42.3z"/>
		<path class="st1" d="M169.2,19.6c-1.4,0.9-3.2,1.4-5.5,1.4h-1.5c-0.7,0-1.2-0.1-1.5-0.3c-0.3-0.2-0.5-0.4-0.6-0.6
			c-0.1-0.3-0.2-1-0.2-2.2v-6c1.2,0,2,0.1,2.7,0.4c0.6,0.3,1.1,0.8,1.6,1.6c0.5,0.8,0.8,1.8,0.9,3h0.7V5.7h-0.7
			c-0.2,1.7-0.6,2.9-1.3,3.8s-1.8,1.3-3.4,1.3h-0.5V2.1h2.5c1.8,0,3.1,0.1,3.8,0.3c1.1,0.3,2,0.8,2.7,1.5c0.6,0.7,1.1,1.8,1.5,3.3
			h0.7V0.9h-20.3v0.6h0.8c0.8,0,1.4,0.1,1.9,0.4c0.3,0.2,0.5,0.5,0.7,0.8c0.1,0.2,0.1,0.8,0.1,1.8v14c0,1.1-0.1,1.7-0.2,2
			c-0.2,0.4-0.4,0.6-0.7,0.8c-0.4,0.2-1,0.3-1.7,0.3h-0.8v0.6h21l1.1-6.8h-0.7C171.5,17.3,170.5,18.7,169.2,19.6z"/>
		<path class="st1" d="M162.8,38.7c-0.2-0.2-0.4-0.3-0.6-0.4s-0.5-0.1-0.8-0.1c-0.4,0-0.8,0.1-1.1,0.2c-0.3,0.2-0.6,0.4-0.8,0.6h0
			l-0.2-0.7h-0.7v5.8h0.9v-4c0.1-0.3,0.3-0.6,0.6-0.8s0.6-0.3,1-0.3c0.5,0,0.8,0.2,1,0.5c0.2,0.3,0.3,0.8,0.3,1.4v3.3h0.9v-3.5
			c0-0.5,0-0.9-0.1-1.2C163.1,39.1,162.9,38.9,162.8,38.7z"/>
	</g>
	<g id="Rectangle_12">
		<rect x="70.2" y="29.2" class="st1" width="157.9" height="1.5"/>
	</g>
</g>
</svg>
