<?xml version="1.0" encoding="utf-8"?>
<!-- Generator: Adobe Illustrator 23.0.1, SVG Export Plug-In . SVG Version: 6.00 Build 0)  -->
<svg version="1.1" id="Layer_1" xmlns="http://www.w3.org/2000/svg" xmlns:xlink="http://www.w3.org/1999/xlink" x="0px" y="0px"
	 viewBox="0 0 16.5 17.8" style="enable-background:new 0 0 16.5 17.8;" xml:space="preserve">
<style type="text/css">
	.st0{fill:#FFFFFF;}
	.st1{fill:#0F4F41;}
	.st2{fill-rule:evenodd;clip-rule:evenodd;fill:#0F4F41;}
</style>
<g id="XMLID_2_">
	<path id="XMLID_6_" class="st0" d="M16.1,13.9L16,13.7c-0.3-0.7-3.7-1.7-4-1.7l-0.2,0c-0.5,0.1-1,0.5-2,1.5
		c-1.2-0.6-2.9-2.1-3.6-2.9c-0.8-1-1.9-2.6-2.3-3.8c1.2-1.1,1.7-1.6,1.8-2.1C5.6,4.5,5,1,4.4,0.6L4.2,0.5C3.9,0.3,3.3-0.1,2.6,0
		c-0.2,0-0.3,0.1-0.5,0.2c-0.4,0.3-1.5,1-2,2c-0.3,0.6-0.4,6.2,3.7,10.9c4.1,4.7,9.2,4.9,10,4.7l0,0l0.1,0c1-0.4,1.9-1.4,2.2-1.8
		C16.8,15.3,16.3,14.4,16.1,13.9z"/>
</g>
</svg>
